<?xml version="1.0" encoding="UTF-8"?>
<svg xmlns="http://www.w3.org/2000/svg" xmlns:xlink="http://www.w3.org/1999/xlink" width="15px" height="15px" viewBox="0 0 15 15" version="1.1">
<g id="surface1">
<path style=" stroke:none;fill-rule:nonzero;fill:rgb(0%,0%,0%);fill-opacity:1;" d="M 11.6875 5.121094 L 10.921875 5.121094 C 10.851562 5.121094 10.777344 5.140625 10.703125 5.140625 L 10.703125 4.867188 C 10.703125 4.375 10.304688 3.960938 9.796875 3.960938 L 9.03125 3.960938 C 8.8125 3.960938 8.613281 4.03125 8.46875 4.160156 C 8.304688 4.03125 8.125 3.960938 7.90625 3.960938 L 7.140625 3.960938 C 7.070312 3.960938 6.976562 3.976562 6.90625 3.996094 L 6.90625 0.910156 C 6.90625 0.417969 6.507812 0 5.996094 0 L 5.234375 0 C 4.742188 0 4.324219 0.398438 4.324219 0.910156 L 4.324219 2.289062 C 4.324219 2.324219 4.324219 2.339844 4.324219 2.378906 L 4.324219 4.996094 C 4.234375 4.921875 4.164062 4.851562 4.089844 4.796875 L 4.054688 4.757812 C 4.035156 4.738281 4.015625 4.722656 4 4.722656 C 3.960938 4.703125 3.945312 4.683594 3.925781 4.683594 C 3.527344 4.429688 3.109375 4.394531 2.910156 4.394531 C 2.820312 4.394531 2.746094 4.394531 2.746094 4.394531 C 2.582031 4.410156 2.457031 4.554688 2.457031 4.71875 L 2.457031 9.859375 C 2.457031 9.878906 2.457031 9.898438 2.457031 9.914062 L 2.457031 9.96875 C 2.457031 12.746094 4.707031 15 7.488281 15 C 10.160156 15 12.355469 12.929688 12.519531 10.277344 C 12.519531 10.257812 12.539062 10.222656 12.539062 10.1875 L 12.539062 7.5 C 12.539062 7.464844 12.539062 7.449219 12.539062 7.410156 L 12.539062 6.03125 C 12.59375 5.539062 12.195312 5.121094 11.6875 5.121094 Z M 11.921875 7.449219 C 11.921875 7.464844 11.921875 7.464844 11.921875 7.484375 L 11.921875 10.136719 C 11.921875 10.15625 11.921875 10.175781 11.921875 10.191406 C 11.8125 12.515625 9.886719 14.332031 7.5625 14.332031 C 5.148438 14.332031 3.203125 12.371094 3.203125 9.972656 L 3.203125 5.085938 C 3.332031 5.105469 3.496094 5.160156 3.640625 5.25 C 3.640625 5.25 3.660156 5.25 3.660156 5.269531 L 3.769531 5.339844 C 3.96875 5.484375 4.292969 5.792969 4.386719 6.230469 C 4.386719 6.230469 4.386719 6.230469 4.386719 6.25 L 4.386719 8.773438 C 4.386719 8.953125 4.53125 9.097656 4.710938 9.097656 C 4.894531 9.097656 5.039062 8.953125 5.039062 8.773438 L 5.039062 6.265625 C 5.039062 6.25 5.039062 6.230469 5.039062 6.195312 L 5.039062 2.363281 C 5.039062 2.34375 5.039062 2.34375 5.039062 2.324219 L 5.039062 0.925781 C 5.039062 0.796875 5.148438 0.691406 5.273438 0.691406 L 6.035156 0.691406 C 6.164062 0.691406 6.273438 0.800781 6.273438 0.925781 L 6.273438 7.59375 C 6.273438 7.773438 6.417969 7.917969 6.597656 7.917969 C 6.78125 7.917969 6.925781 7.773438 6.925781 7.59375 L 6.925781 4.886719 C 6.925781 4.757812 7.035156 4.652344 7.160156 4.652344 L 7.921875 4.652344 C 8.03125 4.652344 8.125 4.742188 8.140625 4.851562 L 8.140625 7.574219 C 8.140625 7.757812 8.285156 7.902344 8.46875 7.902344 C 8.652344 7.902344 8.796875 7.757812 8.796875 7.574219 L 8.796875 4.941406 C 8.796875 4.921875 8.796875 4.902344 8.796875 4.867188 C 8.796875 4.738281 8.90625 4.632812 9.03125 4.632812 L 9.792969 4.632812 C 9.902344 4.632812 9.996094 4.703125 10.011719 4.8125 C 10.011719 4.832031 10.011719 4.851562 10.011719 4.851562 L 10.011719 7.957031 C 10.011719 8.136719 10.15625 8.28125 10.339844 8.28125 C 10.519531 8.28125 10.664062 8.136719 10.664062 7.957031 L 10.664062 5.976562 C 10.683594 5.867188 10.773438 5.792969 10.882812 5.792969 L 11.648438 5.792969 C 11.777344 5.792969 11.882812 5.902344 11.882812 6.03125 L 11.882812 7.410156 L 12.210938 7.449219 Z M 11.921875 7.449219 "/>
</g>
</svg>
