<?xml version="1.0" encoding="UTF-8"?>
<svg xmlns="http://www.w3.org/2000/svg" xmlns:xlink="http://www.w3.org/1999/xlink" width="30px" height="30px" viewBox="0 0 15 15" version="1.1">
<g id="surface1">
<path style=" stroke:none;fill-rule:nonzero;fill:rgb(0%,0%,0%);fill-opacity:1;" d="M 10.660156 4.980469 C 10.296875 4.679688 9.832031 4.515625 9.351562 4.515625 C 8.792969 4.515625 8.257812 4.738281 7.875 5.125 C 7.804688 5.191406 7.742188 5.265625 7.679688 5.347656 C 7.210938 4.726562 6.429688 4.40625 5.65625 4.546875 C 5.011719 4.664062 4.507812 5.015625 4.15625 5.59375 C 3.660156 6.410156 3.617188 7.199219 4.035156 7.9375 C 4.257812 8.332031 4.546875 8.714844 4.921875 9.113281 C 5.605469 9.839844 6.414062 10.527344 7.464844 11.28125 C 7.53125 11.328125 7.605469 11.351562 7.679688 11.351562 C 7.796875 11.351562 7.875 11.292969 7.914062 11.265625 C 8.863281 10.585938 9.609375 9.960938 10.261719 9.296875 C 10.625 8.925781 11.039062 8.46875 11.339844 7.898438 C 11.472656 7.65625 11.617188 7.328125 11.609375 6.953125 C 11.589844 6.148438 11.269531 5.484375 10.660156 4.980469 Z M 10.847656 7.636719 C 10.578125 8.144531 10.199219 8.5625 9.859375 8.90625 C 9.257812 9.519531 8.566406 10.101562 7.679688 10.742188 C 6.710938 10.042969 5.960938 9.402344 5.328125 8.726562 C 4.988281 8.363281 4.722656 8.015625 4.523438 7.660156 C 4.203125 7.097656 4.238281 6.535156 4.632812 5.886719 C 4.898438 5.449219 5.277344 5.183594 5.757812 5.097656 C 5.847656 5.082031 5.941406 5.074219 6.03125 5.074219 C 6.597656 5.074219 7.101562 5.386719 7.386719 5.929688 L 7.433594 6.019531 C 7.480469 6.113281 7.585938 6.164062 7.683594 6.167969 C 7.789062 6.167969 7.886719 6.105469 7.929688 6.011719 C 8.03125 5.808594 8.140625 5.652344 8.273438 5.515625 C 8.550781 5.234375 8.941406 5.074219 9.351562 5.074219 C 9.703125 5.074219 10.039062 5.195312 10.300781 5.410156 C 10.789062 5.8125 11.035156 6.324219 11.050781 6.96875 C 11.054688 7.210938 10.949219 7.441406 10.847656 7.636719 Z M 10.847656 7.636719 "/>
</g>
</svg>
