<svg width="50" height="80" viewBox="0 0 50 80" fill="none" xmlns="http://www.w3.org/2000/svg">
<path d="M0 40C0 17.9086 17.9086 0 40 0H50V80H40C17.9086 80 0 62.0914 0 40V40Z" fill="#1A1A1A"/>
<path d="M28.7478 31.0023C29.0399 31.0017 29.3229 31.1034 29.5478 31.2898C29.6744 31.3947 29.779 31.5236 29.8557 31.669C29.9324 31.8144 29.9796 31.9736 29.9947 32.1373C30.0098 32.301 29.9925 32.4661 29.9437 32.6231C29.8949 32.7801 29.8156 32.9259 29.7103 33.0523L24.1103 39.7523L29.5103 46.4648C29.6141 46.5926 29.6917 46.7397 29.7385 46.8977C29.7853 47.0556 29.8004 47.2212 29.7829 47.385C29.7655 47.5488 29.7159 47.7075 29.6369 47.852C29.558 47.9966 29.4512 48.1241 29.3228 48.2273C29.1935 48.3411 29.042 48.4269 28.8779 48.4794C28.7139 48.5319 28.5407 48.5499 28.3693 48.5323C28.198 48.5147 28.0321 48.4618 27.8821 48.3771C27.7321 48.2923 27.6013 48.1775 27.4978 48.0398L21.4603 40.5398C21.2764 40.3161 21.1759 40.0355 21.1759 39.746C21.1759 39.4565 21.2764 39.1759 21.4603 38.9523L27.7103 31.4523C27.8357 31.301 27.995 31.1814 28.1753 31.1032C28.3555 31.025 28.5517 30.9904 28.7478 31.0023Z" fill="white"/>
</svg>
