<svg width="50" height="80" viewBox="0 0 50 80" fill="none" xmlns="http://www.w3.org/2000/svg">
<path d="M50 40C50 62.0914 32.0914 80 10 80H0L0 0H10C32.0914 0 50 17.9086 50 40V40Z" fill="#1A1A1A"/>
<path d="M22.2522 48.5365C21.9601 48.5371 21.6771 48.4354 21.4522 48.249C21.3256 48.1441 21.221 48.0152 21.1443 47.8698C21.0676 47.7244 21.0204 47.5652 21.0053 47.4015C20.9902 47.2378 21.0075 47.0727 21.0563 46.9157C21.1051 46.7587 21.1844 46.6129 21.2897 46.4865L26.8897 39.7865L21.4897 33.074C21.3859 32.9462 21.3083 32.7991 21.2615 32.6411C21.2147 32.4832 21.1996 32.3176 21.2171 32.1538C21.2345 31.99 21.2841 31.8313 21.3631 31.6868C21.442 31.5422 21.5488 31.4147 21.6772 31.3115C21.8065 31.1978 21.958 31.1119 22.1221 31.0594C22.2861 31.0069 22.4593 30.9889 22.6307 31.0065C22.802 31.0242 22.9679 31.077 23.1179 31.1617C23.2679 31.2465 23.3987 31.3613 23.5022 31.499L29.5397 38.999C29.7236 39.2227 29.8241 39.5033 29.8241 39.7928C29.8241 40.0823 29.7236 40.3629 29.5397 40.5865L23.2897 48.0865C23.1643 48.2378 23.005 48.3574 22.8247 48.4356C22.6445 48.5138 22.4483 48.5484 22.2522 48.5365Z" fill="white"/>
</svg>
